<svg width="86" height="21" viewBox="0 0 86 21" fill="none" xmlns="http://www.w3.org/2000/svg">
<rect width="86" height="21" fill="#1E1E1E"/>
<path d="M1.128 9L0.096 1.908H2.076L2.52 7.116L3.024 1.908H4.932L3.876 9H1.128ZM1.944 8.436L2.532 8.412L3.132 8.436L3.636 5.232L3.912 2.436H3.864L3.48 5.232L3.084 8.388L2.532 8.4L1.992 8.388L1.572 5.244L1.14 2.436H1.092L1.416 5.256L1.944 8.436ZM9.37134 2.424C9.11534 2.424 8.89934 2.34 8.72334 2.172C8.54734 1.996 8.45934 1.788 8.45934 1.548C8.45934 1.3 8.54734 1.092 8.72334 0.924C8.89934 0.747999 9.11534 0.659999 9.37134 0.659999C9.62734 0.659999 9.84734 0.747999 10.0313 0.924C10.2153 1.092 10.3073 1.3 10.3073 1.548C10.3073 1.788 10.2153 1.996 10.0313 2.172C9.84734 2.34 9.62734 2.424 9.37134 2.424ZM9.38334 1.992C9.67934 1.992 9.82734 1.844 9.82734 1.548C9.82734 1.252 9.67934 1.104 9.38334 1.104C9.08734 1.104 8.93934 1.252 8.93934 1.548C8.93934 1.844 9.08734 1.992 9.38334 1.992ZM9.38334 1.968C9.27134 1.968 9.17934 1.928 9.10734 1.848C9.03534 1.76 8.99934 1.66 8.99934 1.548C8.99934 1.428 9.03534 1.332 9.10734 1.26C9.17934 1.18 9.27134 1.14 9.38334 1.14C9.49534 1.14 9.58334 1.18 9.64734 1.26C9.71934 1.332 9.75534 1.428 9.75534 1.548C9.75534 1.66 9.71934 1.76 9.64734 1.848C9.58334 1.928 9.49534 1.968 9.38334 1.968ZM8.44734 9V3.06H10.3193V9H8.44734ZM9.34734 8.436H9.39534L9.45534 6.12L9.40734 3.852H9.35934L9.29934 6.12L9.34734 8.436ZM14.04 9V3.06H15.636L15.78 3.828C15.884 3.564 16.048 3.364 16.272 3.228C16.496 3.084 16.744 3.012 17.016 3.012C17.12 3.012 17.224 3.024 17.328 3.048V4.476C17.184 4.452 17.044 4.44 16.908 4.44C16.796 4.44 16.68 4.452 16.56 4.476C16.44 4.5 16.336 4.544 16.248 4.608C16.112 4.712 16.02 4.856 15.972 5.04C15.932 5.216 15.912 5.42 15.912 5.652V9H14.04ZM15.96 4.176C16.008 4.08 16.116 3.988 16.284 3.9C16.46 3.804 16.648 3.756 16.848 3.756V3.66C16.64 3.66 16.452 3.716 16.284 3.828C16.116 3.932 16.008 4.036 15.96 4.14V4.176ZM14.94 8.436H14.988L15.048 6.12L15 3.852H14.952L14.892 6.12L14.94 8.436ZM21.8134 9.084C21.6454 9.084 21.4694 9.06 21.2854 9.012C21.1014 8.964 20.9454 8.86 20.8174 8.7C20.6974 8.532 20.6374 8.276 20.6374 7.932V6.96C20.6374 6.624 20.7174 6.364 20.8774 6.18C21.0374 5.988 21.2414 5.84 21.4894 5.736C21.7374 5.632 21.9974 5.532 22.2694 5.436C22.5174 5.356 22.6774 5.26 22.7494 5.148C22.8214 5.028 22.8574 4.852 22.8574 4.62V4.236C22.8574 4.148 22.8454 4.076 22.8214 4.02C22.7974 3.956 22.7414 3.924 22.6534 3.924C22.5654 3.924 22.5094 3.96 22.4854 4.032C22.4614 4.112 22.4494 4.232 22.4494 4.392V5.148H20.7574V4.368C20.7574 3.888 20.8934 3.532 21.1654 3.3C21.4454 3.06 21.9454 2.94 22.6654 2.94C23.1774 2.94 23.5854 2.976 23.8894 3.048C24.1934 3.112 24.4134 3.248 24.5494 3.456C24.6934 3.656 24.7654 3.96 24.7654 4.368V9H22.8934V8.412C22.8454 8.564 22.7374 8.716 22.5694 8.868C22.4094 9.012 22.1574 9.084 21.8134 9.084ZM21.5014 4.608H21.5974V4.26C21.5974 4.012 21.6974 3.804 21.8974 3.636C22.1054 3.46 22.3494 3.372 22.6294 3.372V3.348C22.3494 3.348 22.0894 3.432 21.8494 3.6C21.6174 3.768 21.5014 3.988 21.5014 4.26V4.608ZM23.7574 8.436H23.8054L23.8654 6.12L23.8174 3.852H23.7694L23.7094 6.12L23.7574 8.436ZM22.0294 8.532V8.508C21.8774 8.508 21.7654 8.444 21.6934 8.316C21.6294 8.188 21.5974 7.972 21.5974 7.668V6.828C21.5974 6.556 21.6734 6.352 21.8254 6.216C21.9854 6.08 22.1334 5.988 22.2694 5.94V5.916C22.1094 5.972 21.9374 6.076 21.7534 6.228C21.5694 6.372 21.4774 6.572 21.4774 6.828V7.668C21.4774 7.988 21.5294 8.212 21.6334 8.34C21.7374 8.468 21.8694 8.532 22.0294 8.532ZM22.6534 8.04C22.7574 8.04 22.8174 7.988 22.8334 7.884C22.8494 7.772 22.8574 7.636 22.8574 7.476V6.048C22.7374 6.12 22.6374 6.212 22.5574 6.324C22.4854 6.436 22.4494 6.584 22.4494 6.768V7.548C22.4494 7.684 22.4574 7.8 22.4734 7.896C22.4974 7.992 22.5574 8.04 22.6534 8.04ZM28.4245 9V1.44H30.2965V9H28.4245ZM29.3125 8.436H29.3605L29.4205 5.004L29.3725 1.908H29.3245L29.2645 5.004L29.3125 8.436ZM34.3532 9V4.8H33.8372V3.72H34.3532V2.856C34.3532 2.424 34.4412 2.108 34.6172 1.908C34.8012 1.708 35.0492 1.58 35.3612 1.524C35.6732 1.468 36.0252 1.44 36.4172 1.44C36.4332 1.44 36.5132 1.444 36.6572 1.452C36.8092 1.452 36.9852 1.456 37.1852 1.464C37.3852 1.472 37.5772 1.48 37.7612 1.488C37.9532 1.488 38.1012 1.488 38.2052 1.488H39.5852V9H37.7612V2.616C37.6812 2.616 37.6012 2.616 37.5212 2.616C37.4412 2.608 37.3652 2.604 37.2932 2.604C37.1412 2.604 36.9972 2.608 36.8612 2.616C36.7252 2.624 36.6052 2.636 36.5012 2.652C36.3652 2.668 36.2772 2.732 36.2372 2.844C36.1972 2.948 36.1772 3.06 36.1772 3.18V3.72H37.1852V4.8H36.1772V9H34.3532ZM38.6372 8.436H38.6852L38.7452 5.004L38.6972 1.908H38.6492L38.5892 5.004L38.6372 8.436ZM35.2052 8.52H35.2532L35.3012 5.616L35.2652 4.224L36.6212 4.188V4.164L35.2652 4.14L35.2532 2.928C35.2532 2.648 35.3132 2.436 35.4332 2.292C35.5612 2.148 35.7292 2.068 35.9372 2.052V2.04C35.6812 2.04 35.4892 2.132 35.3612 2.316C35.2412 2.492 35.1812 2.684 35.1812 2.892L35.1572 4.14L34.3532 4.164V4.188L35.1572 4.224L35.1452 5.616L35.2052 8.52ZM44.6213 9.084C44.0933 9.084 43.7413 8.952 43.5653 8.688C43.3893 8.424 43.3013 8.032 43.3013 7.512V3.06H45.1733V7.44C45.1733 7.664 45.2413 7.776 45.3773 7.776C45.4093 7.776 45.4453 7.776 45.4853 7.776C45.5253 7.768 45.5573 7.756 45.5813 7.74V3.06H47.4533V9H45.8573L45.7133 8.22C45.6413 8.468 45.5053 8.676 45.3053 8.844C45.1053 9.004 44.8773 9.084 44.6213 9.084ZM44.7653 8.436C44.9653 8.436 45.1373 8.376 45.2813 8.256V8.232C45.1293 8.352 44.9573 8.412 44.7653 8.412C44.5893 8.412 44.4693 8.344 44.4053 8.208C44.3413 8.072 44.3093 7.948 44.3093 7.836L44.3573 5.988L44.3093 3.612H44.2613L44.2013 5.988L44.2373 7.836C44.2453 8.02 44.2933 8.168 44.3813 8.28C44.4693 8.384 44.5973 8.436 44.7653 8.436ZM46.5173 8.484H46.5653L46.6253 5.928L46.5773 3.612H46.5293L46.4693 5.928L46.5173 8.484ZM53.1951 9.144C52.7231 9.144 52.3311 9.092 52.0191 8.988C51.7151 8.876 51.4871 8.668 51.3351 8.364C51.1911 8.052 51.1191 7.6 51.1191 7.008V4.524C51.1191 3.932 51.2991 3.524 51.6591 3.3C52.0191 3.076 52.5311 2.964 53.1951 2.964C53.8591 2.964 54.3711 3.076 54.7311 3.3C55.0911 3.524 55.2711 3.932 55.2711 4.524V6.204H52.9911V7.824C52.9911 7.96 53.0071 8.056 53.0391 8.112C53.0791 8.16 53.1311 8.184 53.1951 8.184C53.2591 8.184 53.3071 8.16 53.3391 8.112C53.3791 8.056 53.3991 7.96 53.3991 7.824V6.744H55.2711V6.996C55.2711 7.588 55.1951 8.04 55.0431 8.352C54.8991 8.664 54.6751 8.876 54.3711 8.988C54.0671 9.092 53.6751 9.144 53.1951 9.144ZM54.2751 5.796H54.3711V4.416C54.3711 4.152 54.2991 3.936 54.1551 3.768C54.0191 3.592 53.8071 3.504 53.5191 3.504V3.528C53.7991 3.528 53.9951 3.616 54.1071 3.792C54.2191 3.96 54.2751 4.168 54.2751 4.416V5.796ZM52.7511 8.604V8.58C52.5751 8.58 52.4151 8.504 52.2711 8.352C52.1271 8.2 52.0591 8.008 52.0671 7.776L52.1031 6.06L52.0671 4.332C52.0591 4.1 52.1471 3.912 52.3311 3.768C52.5231 3.616 52.7311 3.54 52.9551 3.54V3.516C52.6751 3.516 52.4431 3.592 52.2591 3.744C52.0751 3.888 51.9791 4.108 51.9711 4.404L51.9351 6.06L51.9711 7.764C51.9791 8.012 52.0671 8.216 52.2351 8.376C52.4031 8.528 52.5751 8.604 52.7511 8.604ZM52.9911 5.4H53.3991V4.284C53.3991 4.148 53.3791 4.056 53.3391 4.008C53.3071 3.952 53.2591 3.924 53.1951 3.924C53.1311 3.924 53.0791 3.952 53.0391 4.008C53.0071 4.056 52.9911 4.148 52.9911 4.284V5.4ZM53.4231 8.604C53.7111 8.604 53.9391 8.512 54.1071 8.328C54.2831 8.136 54.3711 7.908 54.3711 7.644V7.032H54.2751V7.644C54.2751 7.892 54.2031 8.112 54.0591 8.304C53.9151 8.488 53.7031 8.58 53.4231 8.58V8.604ZM58.8694 9V3.06H60.4654L60.6094 3.84C60.6814 3.592 60.8174 3.388 61.0174 3.228C61.2174 3.06 61.4454 2.976 61.7014 2.976C62.2294 2.976 62.5814 3.108 62.7574 3.372C62.9334 3.636 63.0214 4.028 63.0214 4.548V9H61.1494V4.62C61.1494 4.396 61.0814 4.284 60.9454 4.284C60.9134 4.284 60.8774 4.288 60.8374 4.296C60.7974 4.296 60.7654 4.304 60.7414 4.32V9H58.8694ZM62.0494 8.436H62.0974L62.1574 6.06L62.1214 4.212C62.1134 4.028 62.0654 3.884 61.9774 3.78C61.8894 3.668 61.7614 3.612 61.5934 3.612C61.3934 3.612 61.2214 3.672 61.0774 3.792V3.816C61.2374 3.696 61.4094 3.636 61.5934 3.636C61.7694 3.636 61.8894 3.704 61.9534 3.84C62.0254 3.976 62.0574 4.1 62.0494 4.212L62.0014 6.06L62.0494 8.436ZM59.7814 8.436H59.8294L59.8894 6.12L59.8414 3.852H59.7934L59.7334 6.12L59.7814 8.436ZM68.6929 9.144C68.2209 9.144 67.8289 9.092 67.5169 8.988C67.2129 8.876 66.9849 8.668 66.8329 8.364C66.6889 8.052 66.6169 7.6 66.6169 7.008V4.524C66.6169 3.932 66.7969 3.524 67.1569 3.3C67.5169 3.076 68.0289 2.964 68.6929 2.964C69.3569 2.964 69.8689 3.076 70.2289 3.3C70.5889 3.524 70.7689 3.932 70.7689 4.524V5.472H68.8969V4.284C68.8969 4.148 68.8769 4.056 68.8369 4.008C68.8049 3.952 68.7569 3.924 68.6929 3.924C68.6289 3.924 68.5769 3.952 68.5369 4.008C68.5049 4.056 68.4889 4.148 68.4889 4.284V7.824C68.4889 7.96 68.5049 8.056 68.5369 8.112C68.5769 8.16 68.6289 8.184 68.6929 8.184C68.7569 8.184 68.8049 8.16 68.8369 8.112C68.8769 8.056 68.8969 7.96 68.8969 7.824V6.444H70.7689V6.996C70.7689 7.588 70.6929 8.04 70.5409 8.352C70.3969 8.664 70.1729 8.876 69.8689 8.988C69.5649 9.092 69.1729 9.144 68.6929 9.144ZM69.7729 4.992H69.8689V4.416C69.8609 4.152 69.7889 3.936 69.6529 3.768C69.5169 3.592 69.3049 3.504 69.0169 3.504V3.528C69.2969 3.528 69.4889 3.616 69.5929 3.792C69.7049 3.96 69.7649 4.168 69.7729 4.416V4.992ZM68.2489 8.604V8.58C68.0729 8.58 67.9129 8.504 67.7689 8.352C67.6329 8.2 67.5649 8.008 67.5649 7.776L67.6009 6.06L67.5649 4.332C67.5649 4.1 67.6569 3.912 67.8409 3.768C68.0249 3.616 68.2289 3.54 68.4529 3.54V3.516C68.1729 3.516 67.9409 3.592 67.7569 3.744C67.5729 3.888 67.4769 4.108 67.4689 4.404L67.4329 6.06L67.4689 7.764C67.4689 8.012 67.5529 8.216 67.7209 8.376C67.8969 8.528 68.0729 8.604 68.2489 8.604ZM68.9209 8.604C69.2089 8.604 69.4369 8.512 69.6049 8.328C69.7729 8.136 69.8609 7.908 69.8689 7.644V6.78H69.7729V7.644C69.7649 7.892 69.6889 8.112 69.5449 8.304C69.4089 8.488 69.2009 8.58 68.9209 8.58V8.604ZM76.3832 9.144C75.9112 9.144 75.5192 9.092 75.2072 8.988C74.9032 8.876 74.6752 8.668 74.5232 8.364C74.3792 8.052 74.3072 7.6 74.3072 7.008V4.524C74.3072 3.932 74.4872 3.524 74.8472 3.3C75.2072 3.076 75.7192 2.964 76.3832 2.964C77.0472 2.964 77.5592 3.076 77.9192 3.3C78.2792 3.524 78.4592 3.932 78.4592 4.524V6.204H76.1792V7.824C76.1792 7.96 76.1952 8.056 76.2272 8.112C76.2672 8.16 76.3192 8.184 76.3832 8.184C76.4472 8.184 76.4952 8.16 76.5272 8.112C76.5672 8.056 76.5872 7.96 76.5872 7.824V6.744H78.4592V6.996C78.4592 7.588 78.3832 8.04 78.2312 8.352C78.0872 8.664 77.8632 8.876 77.5592 8.988C77.2552 9.092 76.8632 9.144 76.3832 9.144ZM77.4632 5.796H77.5592V4.416C77.5592 4.152 77.4872 3.936 77.3432 3.768C77.2072 3.592 76.9952 3.504 76.7072 3.504V3.528C76.9872 3.528 77.1832 3.616 77.2952 3.792C77.4072 3.96 77.4632 4.168 77.4632 4.416V5.796ZM75.9392 8.604V8.58C75.7632 8.58 75.6032 8.504 75.4592 8.352C75.3152 8.2 75.2472 8.008 75.2552 7.776L75.2912 6.06L75.2552 4.332C75.2472 4.1 75.3352 3.912 75.5192 3.768C75.7112 3.616 75.9192 3.54 76.1432 3.54V3.516C75.8632 3.516 75.6312 3.592 75.4472 3.744C75.2632 3.888 75.1672 4.108 75.1592 4.404L75.1232 6.06L75.1592 7.764C75.1672 8.012 75.2552 8.216 75.4232 8.376C75.5912 8.528 75.7632 8.604 75.9392 8.604ZM76.1792 5.4H76.5872V4.284C76.5872 4.148 76.5672 4.056 76.5272 4.008C76.4952 3.952 76.4472 3.924 76.3832 3.924C76.3192 3.924 76.2672 3.952 76.2272 4.008C76.1952 4.056 76.1792 4.148 76.1792 4.284V5.4ZM76.6112 8.604C76.8992 8.604 77.1272 8.512 77.2952 8.328C77.4712 8.136 77.5592 7.908 77.5592 7.644V7.032H77.4632V7.644C77.4632 7.892 77.3912 8.112 77.2472 8.304C77.1032 8.488 76.8912 8.58 76.6112 8.58V8.604ZM82.0575 9V3.06H83.6535L83.7975 3.828C83.9015 3.564 84.0655 3.364 84.2895 3.228C84.5135 3.084 84.7615 3.012 85.0335 3.012C85.1375 3.012 85.2415 3.024 85.3455 3.048V4.476C85.2015 4.452 85.0615 4.44 84.9255 4.44C84.8135 4.44 84.6975 4.452 84.5775 4.476C84.4575 4.5 84.3535 4.544 84.2655 4.608C84.1295 4.712 84.0375 4.856 83.9895 5.04C83.9495 5.216 83.9295 5.42 83.9295 5.652V9H82.0575ZM83.9775 4.176C84.0255 4.08 84.1335 3.988 84.3015 3.9C84.4775 3.804 84.6655 3.756 84.8655 3.756V3.66C84.6575 3.66 84.4695 3.716 84.3015 3.828C84.1335 3.932 84.0255 4.036 83.9775 4.14V4.176ZM82.9575 8.436H83.0055L83.0655 6.12L83.0175 3.852H82.9695L82.9095 6.12L82.9575 8.436Z" fill="#2269A1"/>
<path d="M16.672 20.036C16.524 20.036 16.45 20.008 16.45 19.952C16.45 19.784 16.456 19.53 16.468 19.19L16.48 18.434C16.48 18.154 16.474 17.736 16.462 17.18C16.446 16.688 16.438 16.272 16.438 15.932C16.438 15.644 16.49 15.5 16.594 15.5C16.862 15.5 17.068 15.586 17.212 15.758C17.36 15.93 17.434 16.158 17.434 16.442C17.434 16.762 17.306 17.094 17.05 17.438C17.262 17.65 17.41 17.852 17.494 18.044C17.582 18.236 17.626 18.466 17.626 18.734C17.626 18.898 17.62 19.03 17.608 19.13C17.6 19.226 17.582 19.316 17.554 19.4C17.526 19.488 17.486 19.564 17.434 19.628C17.386 19.692 17.32 19.752 17.236 19.808C17.156 19.864 17.052 19.92 16.924 19.976C16.876 19.988 16.836 19.998 16.804 20.006C16.752 20.026 16.712 20.036 16.684 20.036H16.672ZM16.666 17.408C16.754 17.408 16.838 17.37 16.918 17.294C16.998 17.218 17.064 17.118 17.116 16.994C17.168 16.878 17.208 16.758 17.236 16.634C17.264 16.506 17.278 16.39 17.278 16.286C17.278 16.146 17.226 16.014 17.122 15.89C17.022 15.766 16.908 15.704 16.78 15.704C16.676 15.704 16.624 15.79 16.624 15.962C16.624 16.23 16.628 16.47 16.636 16.682L16.648 17.402L16.666 17.408ZM16.714 19.802C16.85 19.802 16.974 19.762 17.086 19.682C17.202 19.598 17.292 19.488 17.356 19.352C17.424 19.216 17.458 19.07 17.458 18.914C17.458 18.198 17.286 17.768 16.942 17.624C16.91 17.624 16.858 17.634 16.786 17.654C16.718 17.678 16.672 17.69 16.648 17.69C16.668 18.342 16.678 19.044 16.678 19.796H16.696L16.714 19.802ZM20.5496 20.114C20.0816 20.114 19.8476 19.378 19.8476 17.906V17.696C19.8476 16.58 19.9916 16.022 20.2796 16.022C20.2996 16.022 20.3276 16.028 20.3636 16.04C20.4916 16.084 20.6176 16.112 20.7416 16.124C20.8176 16.14 20.8936 16.218 20.9696 16.358C21.0536 16.502 21.1156 16.692 21.1556 16.928C21.1996 17.164 21.2216 17.406 21.2216 17.654L21.2096 17.684C21.2096 17.816 21.2116 17.934 21.2156 18.038L21.2216 18.398C21.2216 18.602 21.2136 18.786 21.1976 18.95C21.1736 19.198 21.1336 19.412 21.0776 19.592C21.0416 19.7 20.9996 19.79 20.9516 19.862C20.9076 19.934 20.8516 19.994 20.7836 20.042C20.7196 20.09 20.6416 20.114 20.5496 20.114ZM20.5256 19.94C20.6816 19.94 20.7976 19.83 20.8736 19.61C20.9496 19.386 20.9956 19.158 21.0116 18.926C21.0276 18.686 21.0356 18.494 21.0356 18.35C21.0356 18.19 21.0236 17.954 20.9996 17.642C20.9796 17.294 20.9696 17.058 20.9696 16.934L20.9456 16.886L20.9576 16.856C20.9576 16.68 20.9076 16.528 20.8076 16.4C20.7116 16.272 20.5936 16.208 20.4536 16.208C20.2696 16.208 20.1596 16.296 20.1236 16.472C20.1156 16.532 20.1076 16.618 20.0996 16.73C20.0996 17.026 20.0876 17.228 20.0636 17.336C20.0636 17.396 20.0576 17.49 20.0456 17.618L20.0336 17.9C20.0336 17.988 20.0356 18.066 20.0396 18.134L20.0456 18.374C20.0456 18.562 20.0616 18.778 20.0936 19.022C20.1176 19.202 20.1456 19.354 20.1776 19.478C20.2096 19.602 20.2556 19.708 20.3156 19.796C20.3756 19.892 20.4456 19.94 20.5256 19.94ZM24.1838 20.114C23.7158 20.114 23.4818 19.378 23.4818 17.906V17.696C23.4818 16.58 23.6258 16.022 23.9138 16.022C23.9338 16.022 23.9618 16.028 23.9978 16.04C24.1258 16.084 24.2518 16.112 24.3758 16.124C24.4518 16.14 24.5278 16.218 24.6038 16.358C24.6878 16.502 24.7498 16.692 24.7898 16.928C24.8338 17.164 24.8558 17.406 24.8558 17.654L24.8438 17.684C24.8438 17.816 24.8458 17.934 24.8498 18.038L24.8558 18.398C24.8558 18.602 24.8478 18.786 24.8318 18.95C24.8078 19.198 24.7678 19.412 24.7118 19.592C24.6758 19.7 24.6338 19.79 24.5858 19.862C24.5418 19.934 24.4858 19.994 24.4178 20.042C24.3538 20.09 24.2758 20.114 24.1838 20.114ZM24.1598 19.94C24.3158 19.94 24.4318 19.83 24.5078 19.61C24.5838 19.386 24.6298 19.158 24.6458 18.926C24.6618 18.686 24.6698 18.494 24.6698 18.35C24.6698 18.19 24.6578 17.954 24.6338 17.642C24.6138 17.294 24.6038 17.058 24.6038 16.934L24.5798 16.886L24.5918 16.856C24.5918 16.68 24.5418 16.528 24.4418 16.4C24.3458 16.272 24.2278 16.208 24.0878 16.208C23.9038 16.208 23.7938 16.296 23.7578 16.472C23.7498 16.532 23.7418 16.618 23.7338 16.73C23.7338 17.026 23.7218 17.228 23.6978 17.336C23.6978 17.396 23.6918 17.49 23.6798 17.618L23.6678 17.9C23.6678 17.988 23.6698 18.066 23.6738 18.134L23.6798 18.374C23.6798 18.562 23.6958 18.778 23.7278 19.022C23.7518 19.202 23.7798 19.354 23.8118 19.478C23.8438 19.602 23.8898 19.708 23.9498 19.796C24.0098 19.892 24.0798 19.94 24.1598 19.94ZM27.26 20.072C27.216 20.064 27.174 20.046 27.134 20.018C27.094 19.994 27.072 19.964 27.068 19.928L27.098 19.88C27.114 19.88 27.15 19.886 27.206 19.898C27.25 19.914 27.286 19.922 27.314 19.922C27.402 19.922 27.48 19.888 27.548 19.82C27.616 19.748 27.668 19.656 27.704 19.544C27.76 19.336 27.788 19.14 27.788 18.956C27.788 18.68 27.704 18.384 27.536 18.068C27.432 17.884 27.352 17.738 27.296 17.63C27.24 17.522 27.19 17.398 27.146 17.258C27.094 17.094 27.068 16.936 27.068 16.784C27.068 16.64 27.104 16.47 27.176 16.274C27.212 16.182 27.262 16.108 27.326 16.052C27.394 15.992 27.466 15.962 27.542 15.962C27.594 15.962 27.644 15.98 27.692 16.016C27.744 16.052 27.77 16.09 27.77 16.13C27.77 16.162 27.744 16.178 27.692 16.178C27.676 16.178 27.656 16.172 27.632 16.16C27.608 16.148 27.586 16.142 27.566 16.142C27.506 16.142 27.452 16.166 27.404 16.214C27.356 16.262 27.32 16.324 27.296 16.4C27.248 16.548 27.224 16.684 27.224 16.808C27.224 16.884 27.234 16.962 27.254 17.042C27.258 17.066 27.262 17.086 27.266 17.102C27.27 17.118 27.272 17.13 27.272 17.138L27.308 17.258L27.338 17.366L27.386 17.474C27.398 17.502 27.41 17.528 27.422 17.552C27.438 17.572 27.452 17.592 27.464 17.612L27.536 17.738C27.552 17.762 27.586 17.82 27.638 17.912C27.69 18 27.738 18.094 27.782 18.194C27.822 18.278 27.852 18.358 27.872 18.434C27.892 18.506 27.91 18.594 27.926 18.698C27.938 18.798 27.944 18.908 27.944 19.028C27.944 19.22 27.918 19.4 27.866 19.568C27.794 19.768 27.69 19.908 27.554 19.988C27.478 20.036 27.39 20.06 27.29 20.06L27.26 20.072ZM27.74 16.16C27.74 16.156 27.738 16.154 27.734 16.154V16.16H27.74ZM30.6266 19.916L30.6206 19.694C30.6166 19.63 30.6146 19.558 30.6146 19.478C30.6146 19.438 30.6166 19.404 30.6206 19.376L30.6266 19.268C30.6266 19.228 30.6186 19.18 30.6026 19.124C30.6026 18.856 30.5826 18.358 30.5426 17.63C30.5026 16.926 30.4806 16.448 30.4766 16.196C30.2286 16.196 30.0626 16.19 29.9786 16.178C29.8986 16.158 29.8586 16.126 29.8586 16.082C29.8786 16.038 29.9166 16.016 29.9726 16.016C30.0926 16.016 30.2666 16.024 30.4946 16.04C30.7026 16.06 30.8766 16.07 31.0166 16.07H31.1426L31.2686 16.064C31.3406 16.064 31.3766 16.09 31.3766 16.142C31.3766 16.166 31.3626 16.186 31.3346 16.202C31.3106 16.214 31.2806 16.22 31.2446 16.22C31.1646 16.22 31.0806 16.216 30.9926 16.208L30.7346 16.196C30.7186 16.196 30.7106 16.202 30.7106 16.214C30.7066 16.226 30.7046 16.264 30.7046 16.328C30.7046 16.716 30.7286 17.304 30.7766 18.092C30.8206 18.908 30.8426 19.494 30.8426 19.85C30.8426 19.878 30.8246 19.904 30.7886 19.928C30.7566 19.952 30.7246 19.964 30.6926 19.964L30.6266 19.916ZM35.4192 20.072C35.3952 20.072 35.3752 20.056 35.3592 20.024C35.3432 19.996 35.3352 19.964 35.3352 19.928C35.3352 19.8 35.3412 19.608 35.3532 19.352L35.3652 18.77C35.3652 18.714 35.3592 18.632 35.3472 18.524C35.3312 18.428 35.3232 18.348 35.3232 18.284C35.3232 18.216 35.3112 18.122 35.2872 18.002C35.2632 17.874 35.2512 17.782 35.2512 17.726C35.2512 17.678 35.2312 17.564 35.1912 17.384C35.1792 17.348 35.1712 17.32 35.1672 17.3C35.1632 17.276 35.1592 17.26 35.1552 17.252C35.1392 17.14 35.1132 17.002 35.0772 16.838C35.0092 16.466 34.9432 16.172 34.8792 15.956C34.8192 15.764 34.7892 15.634 34.7892 15.566C34.7892 15.538 34.8012 15.516 34.8252 15.5C34.8492 15.48 34.8772 15.47 34.9092 15.47L34.9812 15.518C34.9932 15.698 35.0472 16.02 35.1432 16.484C35.2392 16.944 35.3112 17.208 35.3592 17.276C35.3672 17.256 35.3872 17.082 35.4192 16.754C35.4472 16.462 35.4872 16.172 35.5392 15.884C35.5872 15.62 35.6452 15.488 35.7132 15.488C35.7332 15.488 35.7492 15.49 35.7612 15.494C35.7732 15.494 35.7832 15.498 35.7912 15.506C35.7992 15.514 35.8032 15.53 35.8032 15.554C35.8032 15.59 35.7952 15.632 35.7792 15.68L35.7552 15.8L35.5992 16.694C35.5792 16.81 35.5612 16.954 35.5452 17.126C35.5292 17.294 35.5212 17.442 35.5212 17.57C35.5212 17.606 35.5232 17.638 35.5272 17.666C35.5312 17.698 35.5332 17.732 35.5332 17.768L35.4972 17.858V17.906L35.5092 18.14L35.5212 18.266C35.5332 18.426 35.5392 18.546 35.5392 18.626C35.5392 19.258 35.5352 19.662 35.5272 19.838L35.5452 19.856C35.5452 19.864 35.5472 19.87 35.5512 19.874V19.898C35.5512 19.946 35.5392 19.986 35.5152 20.018C35.4952 20.054 35.4632 20.072 35.4192 20.072ZM38.773 20.114C38.305 20.114 38.071 19.378 38.071 17.906V17.696C38.071 16.58 38.215 16.022 38.503 16.022C38.523 16.022 38.551 16.028 38.587 16.04C38.715 16.084 38.841 16.112 38.965 16.124C39.041 16.14 39.117 16.218 39.193 16.358C39.277 16.502 39.339 16.692 39.379 16.928C39.423 17.164 39.445 17.406 39.445 17.654L39.433 17.684C39.433 17.816 39.435 17.934 39.439 18.038L39.445 18.398C39.445 18.602 39.437 18.786 39.421 18.95C39.397 19.198 39.357 19.412 39.301 19.592C39.265 19.7 39.223 19.79 39.175 19.862C39.131 19.934 39.075 19.994 39.007 20.042C38.943 20.09 38.865 20.114 38.773 20.114ZM38.749 19.94C38.905 19.94 39.021 19.83 39.097 19.61C39.173 19.386 39.219 19.158 39.235 18.926C39.251 18.686 39.259 18.494 39.259 18.35C39.259 18.19 39.247 17.954 39.223 17.642C39.203 17.294 39.193 17.058 39.193 16.934L39.169 16.886L39.181 16.856C39.181 16.68 39.131 16.528 39.031 16.4C38.935 16.272 38.817 16.208 38.677 16.208C38.493 16.208 38.383 16.296 38.347 16.472C38.339 16.532 38.331 16.618 38.323 16.73C38.323 17.026 38.311 17.228 38.287 17.336C38.287 17.396 38.281 17.49 38.269 17.618L38.257 17.9C38.257 17.988 38.259 18.066 38.263 18.134L38.269 18.374C38.269 18.562 38.285 18.778 38.317 19.022C38.341 19.202 38.369 19.354 38.401 19.478C38.433 19.602 38.479 19.708 38.539 19.796C38.599 19.892 38.669 19.94 38.749 19.94ZM42.4132 20.09C42.3492 20.09 42.2792 20.068 42.2032 20.024C42.1312 19.984 42.0712 19.936 42.0232 19.88C41.9672 19.808 41.9232 19.606 41.8912 19.274C41.8592 18.942 41.8392 18.562 41.8312 18.134C41.8312 18.038 41.8292 17.966 41.8252 17.918C41.8172 16.914 41.8012 16.32 41.7772 16.136L41.8132 16.052C41.9052 16.064 41.9512 16.174 41.9512 16.382L41.9692 17.972C41.9692 18.084 41.9792 18.296 41.9992 18.608C42.0232 18.888 42.0352 19.1 42.0352 19.244C42.0352 19.7 42.1852 19.928 42.4852 19.928C42.6692 19.928 42.7872 19.508 42.8392 18.668L42.8452 18.548C42.8732 17.448 42.8872 16.634 42.8872 16.106L42.8812 16.052C42.8772 16.036 42.8752 16.018 42.8752 15.998C42.8752 15.954 42.9092 15.932 42.9772 15.932C43.0252 15.932 43.0552 15.944 43.0672 15.968C43.0752 16.008 43.0792 16.078 43.0792 16.178C43.0792 16.482 43.0672 16.686 43.0432 16.79L43.0492 16.826C43.0492 16.878 43.0432 16.958 43.0312 17.066L43.0192 17.306V17.366C43.0232 17.382 43.0252 17.402 43.0252 17.426C43.0172 17.522 43.0132 17.614 43.0132 17.702C43.0092 17.73 43.0072 17.774 43.0072 17.834C42.9992 18.214 42.9912 18.544 42.9832 18.824C42.9712 19.172 42.9232 19.466 42.8392 19.706C42.7512 19.962 42.6092 20.09 42.4132 20.09ZM46.4584 20.072C46.4104 20.02 46.3584 19.882 46.3024 19.658C46.2464 19.434 46.1944 19.182 46.1464 18.902C46.1144 18.674 46.0684 18.448 46.0084 18.224C45.9604 18.024 45.9144 17.924 45.8704 17.924H45.8524C45.7644 17.924 45.7204 17.952 45.7204 18.008C45.7204 18.296 45.7364 18.734 45.7684 19.322C45.7844 19.682 45.8024 19.892 45.8224 19.952L45.7744 20.054H45.6904L45.6424 20.006C45.5784 18.158 45.5464 16.898 45.5464 16.226C45.5464 16.182 45.5484 16.146 45.5524 16.118C45.5604 16.09 45.5744 16.064 45.5944 16.04C45.6104 16.012 45.6384 15.998 45.6784 15.998C45.8824 15.998 46.0464 16.048 46.1704 16.148C46.2944 16.248 46.3564 16.392 46.3564 16.58V17.018C46.3564 17.094 46.3304 17.196 46.2784 17.324C46.2304 17.452 46.1764 17.57 46.1164 17.678L46.0384 17.828C46.0824 18.032 46.1684 18.4 46.2964 18.932C46.4284 19.46 46.5004 19.74 46.5124 19.772C46.5164 19.776 46.5204 19.786 46.5244 19.802C46.5324 19.818 46.5464 19.842 46.5664 19.874C46.5944 19.93 46.6084 19.978 46.6084 20.018C46.6084 20.074 46.5864 20.102 46.5424 20.102L46.4584 20.072ZM45.7504 17.774C45.8264 17.774 45.8944 17.736 45.9544 17.66C46.0144 17.584 46.0624 17.486 46.0984 17.366C46.1624 17.122 46.1944 16.928 46.1944 16.784C46.1944 16.692 46.1884 16.616 46.1764 16.556C46.1684 16.496 46.1524 16.432 46.1284 16.364C46.0804 16.224 45.9664 16.154 45.7864 16.154C45.7664 16.154 45.7504 16.172 45.7384 16.208C45.7264 16.24 45.7204 16.274 45.7204 16.31C45.7204 16.578 45.7244 16.82 45.7324 17.036C45.7364 17.252 45.7384 17.494 45.7384 17.762L45.7504 17.774ZM50.5861 20.036C50.4381 20.036 50.3641 20.008 50.3641 19.952C50.3641 19.784 50.3701 19.53 50.3821 19.19L50.3941 18.434C50.3941 18.154 50.3881 17.736 50.3761 17.18C50.3601 16.688 50.3521 16.272 50.3521 15.932C50.3521 15.644 50.4041 15.5 50.5081 15.5C50.7761 15.5 50.9821 15.586 51.1261 15.758C51.2741 15.93 51.3481 16.158 51.3481 16.442C51.3481 16.762 51.2201 17.094 50.9641 17.438C51.1761 17.65 51.3241 17.852 51.4081 18.044C51.4961 18.236 51.5401 18.466 51.5401 18.734C51.5401 18.898 51.5341 19.03 51.5221 19.13C51.5141 19.226 51.4961 19.316 51.4681 19.4C51.4401 19.488 51.4001 19.564 51.3481 19.628C51.3001 19.692 51.2341 19.752 51.1501 19.808C51.0701 19.864 50.9661 19.92 50.8381 19.976C50.7901 19.988 50.7501 19.998 50.7181 20.006C50.6661 20.026 50.6261 20.036 50.5981 20.036H50.5861ZM50.5801 17.408C50.6681 17.408 50.7521 17.37 50.8321 17.294C50.9121 17.218 50.9781 17.118 51.0301 16.994C51.0821 16.878 51.1221 16.758 51.1501 16.634C51.1781 16.506 51.1921 16.39 51.1921 16.286C51.1921 16.146 51.1401 16.014 51.0361 15.89C50.9361 15.766 50.8221 15.704 50.6941 15.704C50.5901 15.704 50.5381 15.79 50.5381 15.962C50.5381 16.23 50.5421 16.47 50.5501 16.682L50.5621 17.402L50.5801 17.408ZM50.6281 19.802C50.7641 19.802 50.8881 19.762 51.0001 19.682C51.1161 19.598 51.2061 19.488 51.2701 19.352C51.3381 19.216 51.3721 19.07 51.3721 18.914C51.3721 18.198 51.2001 17.768 50.8561 17.624C50.8241 17.624 50.7721 17.634 50.7001 17.654C50.6321 17.678 50.5861 17.69 50.5621 17.69C50.5821 18.342 50.5921 19.044 50.5921 19.796H50.6101L50.6281 19.802ZM54.7577 20.072C54.7097 20.02 54.6577 19.882 54.6017 19.658C54.5457 19.434 54.4937 19.182 54.4457 18.902C54.4137 18.674 54.3677 18.448 54.3077 18.224C54.2597 18.024 54.2137 17.924 54.1697 17.924H54.1517C54.0637 17.924 54.0197 17.952 54.0197 18.008C54.0197 18.296 54.0357 18.734 54.0677 19.322C54.0837 19.682 54.1017 19.892 54.1217 19.952L54.0737 20.054H53.9897L53.9417 20.006C53.8777 18.158 53.8457 16.898 53.8457 16.226C53.8457 16.182 53.8477 16.146 53.8517 16.118C53.8597 16.09 53.8737 16.064 53.8937 16.04C53.9097 16.012 53.9377 15.998 53.9777 15.998C54.1817 15.998 54.3457 16.048 54.4697 16.148C54.5937 16.248 54.6557 16.392 54.6557 16.58V17.018C54.6557 17.094 54.6297 17.196 54.5777 17.324C54.5297 17.452 54.4757 17.57 54.4157 17.678L54.3377 17.828C54.3817 18.032 54.4677 18.4 54.5957 18.932C54.7277 19.46 54.7997 19.74 54.8117 19.772C54.8157 19.776 54.8197 19.786 54.8237 19.802C54.8317 19.818 54.8457 19.842 54.8657 19.874C54.8937 19.93 54.9077 19.978 54.9077 20.018C54.9077 20.074 54.8857 20.102 54.8417 20.102L54.7577 20.072ZM54.0497 17.774C54.1257 17.774 54.1937 17.736 54.2537 17.66C54.3137 17.584 54.3617 17.486 54.3977 17.366C54.4617 17.122 54.4937 16.928 54.4937 16.784C54.4937 16.692 54.4877 16.616 54.4757 16.556C54.4677 16.496 54.4517 16.432 54.4277 16.364C54.3797 16.224 54.2657 16.154 54.0857 16.154C54.0657 16.154 54.0497 16.172 54.0377 16.208C54.0257 16.24 54.0197 16.274 54.0197 16.31C54.0197 16.578 54.0237 16.82 54.0317 17.036C54.0357 17.252 54.0377 17.494 54.0377 17.762L54.0497 17.774ZM58.3219 20.054C58.2619 20.054 58.2239 20.046 58.2079 20.03C58.1919 20.018 58.1799 19.982 58.1719 19.922C58.1359 19.63 58.1139 19.448 58.1059 19.376L58.0759 19.136C57.9879 19.116 57.8879 19.106 57.7759 19.106L57.5599 19.094C57.4639 19.082 57.3939 19.076 57.3499 19.076C57.3259 19.076 57.3119 19.086 57.3079 19.106C57.3079 19.118 57.3059 19.124 57.3019 19.124L57.2899 19.244C57.2859 19.316 57.2639 19.46 57.2239 19.676C57.2039 19.784 57.1799 19.868 57.1519 19.928C57.1199 19.996 57.0899 20.03 57.0619 20.03C57.0379 20.03 57.0119 20.02 56.9839 20C56.9559 19.976 56.9419 19.952 56.9419 19.928L56.9479 19.91L56.9539 19.892C57.0259 19.608 57.0859 19.326 57.1339 19.046L57.2059 18.674L57.2779 18.218C57.2779 18.218 57.2999 18.086 57.3439 17.822C57.3639 17.714 57.3999 17.54 57.4519 17.3C57.5079 17.028 57.5419 16.842 57.5539 16.742C57.5579 16.73 57.5659 16.656 57.5779 16.52C57.5939 16.368 57.6079 16.256 57.6199 16.184C57.6319 16.08 57.6439 16.02 57.6559 16.004H57.6979C57.7099 16.008 57.7239 16.01 57.7399 16.01C57.7879 16.01 57.8239 15.998 57.8479 15.974C57.8759 15.974 57.8999 15.984 57.9199 16.004C57.9439 16.02 57.9559 16.04 57.9559 16.064C57.9559 16.256 57.9699 16.476 57.9979 16.724C58.0139 16.852 58.0259 16.958 58.0339 17.042C58.0779 17.558 58.1899 18.526 58.3699 19.946V19.964C58.3699 20.004 58.3539 20.034 58.3219 20.054ZM58.0459 18.974C58.0059 18.398 57.9299 17.548 57.8179 16.424L57.4939 18.026C57.4019 18.486 57.3559 18.776 57.3559 18.896C57.3559 18.916 57.4319 18.934 57.5839 18.95C57.7359 18.966 57.8699 18.974 57.9859 18.974H58.0459ZM62.1108 20.024C62.0788 20.024 62.0548 20.012 62.0388 19.988C62.0268 19.964 62.0148 19.928 62.0028 19.88C61.9988 19.848 61.9908 19.82 61.9788 19.796L61.9848 19.778C61.9528 19.59 61.8848 19.36 61.7808 19.088L61.6728 18.776C61.6648 18.768 61.6268 18.666 61.5588 18.47L61.5108 18.326C61.1508 17.214 60.9248 16.612 60.8328 16.52C60.8008 16.628 60.7848 16.768 60.7848 16.94C60.7848 17.032 60.7868 17.112 60.7908 17.18L60.7968 17.414L60.7908 17.558C60.7868 17.602 60.7848 17.65 60.7848 17.702C60.7848 17.79 60.7888 17.866 60.7968 17.93C60.8048 18.058 60.8088 18.122 60.8088 18.122H60.7908C60.7908 18.79 60.8048 19.158 60.8328 19.226V19.766C60.8488 19.798 60.8568 19.84 60.8568 19.892C60.8568 19.924 60.8448 19.952 60.8208 19.976C60.8008 20 60.7748 20.012 60.7428 20.012C60.6588 20.012 60.6168 19.904 60.6168 19.688L60.6288 19.496C60.6368 19.436 60.6408 19.37 60.6408 19.298C60.6408 19.106 60.6348 18.818 60.6228 18.434C60.6108 18.05 60.6048 17.762 60.6048 17.57C60.6048 17.454 60.6108 17.276 60.6228 17.036C60.6348 16.8 60.6408 16.624 60.6408 16.508V16.43C60.6408 16.234 60.6768 16.106 60.7488 16.046L60.7668 16.064L60.8268 16.052C60.8428 16.056 60.8608 16.068 60.8808 16.088C60.8968 16.104 60.9048 16.122 60.9048 16.142L60.9168 16.178C60.9168 16.186 60.9168 16.194 60.9168 16.202C60.9208 16.206 60.9228 16.208 60.9228 16.208C60.9868 16.492 61.1308 16.89 61.3548 17.402C61.5828 17.942 61.7248 18.3 61.7808 18.476C61.8208 18.616 61.8528 18.74 61.8768 18.848C61.9528 19.188 62.0428 19.45 62.1468 19.634L62.1588 19.616C62.2508 18.728 62.2968 17.638 62.2968 16.346L62.2908 16.274C62.2868 16.254 62.2848 16.228 62.2848 16.196C62.2848 16.112 62.3128 16.07 62.3688 16.07C62.4048 16.07 62.4348 16.088 62.4588 16.124C62.4868 16.16 62.5008 16.2 62.5008 16.244V16.646L62.4708 16.694C62.4708 17.074 62.4488 17.698 62.4048 18.566C62.3608 19.434 62.3188 19.906 62.2788 19.982L62.1768 20.006V20.012L62.1708 20.006L62.1108 20.024ZM65.0145 20.03C64.9825 20.03 64.9665 19.976 64.9665 19.868C64.9505 19.592 64.9425 19.244 64.9425 18.824C64.9425 18.56 64.9445 18.324 64.9485 18.116L64.9545 17.408C64.9545 17.104 64.9465 16.728 64.9305 16.28C64.8945 16.248 64.8765 16.208 64.8765 16.16C64.8765 16.132 64.8925 16.104 64.9245 16.076C64.9605 16.044 64.9925 16.028 65.0205 16.028C65.0525 16.028 65.0825 16.044 65.1105 16.076L65.1765 16.13C65.2005 16.142 65.2465 16.154 65.3145 16.166C65.3825 16.178 65.4305 16.19 65.4585 16.202C65.5185 16.234 65.5985 16.296 65.6985 16.388C65.7945 16.484 65.8605 16.544 65.8965 16.568L65.8905 16.58C65.8945 16.604 65.9245 16.656 65.9805 16.736C66.0245 16.796 66.0605 16.852 66.0885 16.904C66.1525 17.088 66.1845 17.326 66.1845 17.618C66.1845 17.67 66.1825 17.716 66.1785 17.756V17.9V17.948L66.1725 18.008C66.1725 18.084 66.1845 18.144 66.2085 18.188C66.1845 18.316 66.1545 18.558 66.1185 18.914C66.1065 19.018 66.0865 19.128 66.0585 19.244C66.0305 19.36 65.9965 19.456 65.9565 19.532C65.8525 19.728 65.6785 19.894 65.4345 20.03H65.0145ZM65.4105 19.856C65.4385 19.824 65.4645 19.798 65.4885 19.778C65.4885 19.778 65.5025 19.768 65.5305 19.748L65.5785 19.706C65.8585 19.454 65.9985 18.974 65.9985 18.266V18.152C65.9945 18.12 65.9925 18.086 65.9925 18.05L65.9685 17.444C65.9565 17.212 65.8865 16.972 65.7585 16.724C65.6985 16.6 65.6165 16.5 65.5125 16.424C65.4125 16.344 65.3065 16.304 65.1945 16.304C65.1465 16.304 65.1225 16.674 65.1225 17.414C65.1225 18.27 65.1465 19.016 65.1945 19.652L65.1885 19.766L65.2125 19.778L65.2245 19.856H65.4105Z" fill="white"/>
</svg>
