<svg width="82" height="30" viewBox="0 0 82 30" fill="none" xmlns="http://www.w3.org/2000/svg">
<rect width="82" height="30" fill="#FFF9F9" fill-opacity="0.19"/>
<path d="M6.11257 1.27273L8.22195 7.90341H8.30291L10.4165 1.27273H12.462L9.45348 10H7.07564L4.06286 1.27273H6.11257ZM13.4783 10V3.45455H15.2937V10H13.4783ZM14.3903 2.6108C14.1204 2.6108 13.8888 2.52131 13.6957 2.34233C13.5053 2.16051 13.4102 1.94318 13.4102 1.69034C13.4102 1.44034 13.5053 1.22585 13.6957 1.04688C13.8888 0.865057 14.1204 0.774147 14.3903 0.774147C14.6602 0.774147 14.8903 0.865057 15.0806 1.04688C15.2738 1.22585 15.3704 1.44034 15.3704 1.69034C15.3704 1.94318 15.2738 2.16051 15.0806 2.34233C14.8903 2.52131 14.6602 2.6108 14.3903 2.6108ZM16.7479 10V3.45455H18.5078V4.59659H18.576C18.6953 4.19034 18.8956 3.88352 19.1768 3.67614C19.4581 3.46591 19.782 3.3608 20.1484 3.3608C20.2393 3.3608 20.3374 3.36648 20.4425 3.37784C20.5476 3.3892 20.6399 3.40483 20.7195 3.42472V5.03551C20.6342 5.00994 20.5163 4.98722 20.3658 4.96733C20.2152 4.94744 20.0774 4.9375 19.9524 4.9375C19.6854 4.9375 19.4467 4.99574 19.2365 5.11222C19.0291 5.22585 18.8643 5.38494 18.7422 5.58949C18.6229 5.79403 18.5632 6.02983 18.5632 6.29688V10H16.7479ZM23.337 10.1236C22.9194 10.1236 22.5472 10.0511 22.2205 9.90625C21.8938 9.75852 21.6353 9.54119 21.445 9.25426C21.2575 8.96449 21.1637 8.60369 21.1637 8.17188C21.1637 7.80824 21.2305 7.50284 21.364 7.25568C21.4975 7.00852 21.6793 6.80966 21.9094 6.65909C22.1396 6.50852 22.4009 6.39489 22.6935 6.31818C22.989 6.24148 23.2987 6.1875 23.6225 6.15625C24.0032 6.11648 24.31 6.07955 24.543 6.04545C24.7759 6.00852 24.945 5.95455 25.0501 5.88352C25.1552 5.8125 25.2077 5.70739 25.2077 5.56818V5.54261C25.2077 5.27273 25.1225 5.06392 24.9521 4.91619C24.7844 4.76847 24.5458 4.6946 24.2362 4.6946C23.9094 4.6946 23.6495 4.76705 23.4563 4.91193C23.2631 5.05398 23.1353 5.23295 23.0728 5.44886L21.3938 5.3125C21.479 4.91477 21.6467 4.57102 21.8967 4.28125C22.1467 3.98864 22.4691 3.7642 22.864 3.60795C23.2617 3.44886 23.7219 3.36932 24.2447 3.36932C24.6083 3.36932 24.9563 3.41193 25.2887 3.49716C25.6239 3.58239 25.9208 3.71449 26.1793 3.89347C26.4407 4.07244 26.6467 4.30256 26.7972 4.58381C26.9478 4.86222 27.0231 5.19602 27.0231 5.58523V10H25.3015V9.09233H25.2504C25.1452 9.29688 25.0046 9.47727 24.8285 9.63352C24.6523 9.78693 24.4407 9.90767 24.1935 9.99574C23.9464 10.081 23.6609 10.1236 23.337 10.1236ZM23.8569 8.87074C24.1239 8.87074 24.3597 8.81818 24.5643 8.71307C24.7688 8.60511 24.9293 8.46023 25.0458 8.27841C25.1623 8.09659 25.2205 7.89062 25.2205 7.66051V6.96591C25.1637 7.00284 25.0856 7.03693 24.9862 7.06818C24.8896 7.09659 24.7802 7.12358 24.658 7.14915C24.5359 7.17187 24.4137 7.19318 24.2915 7.21307C24.1694 7.23011 24.0586 7.24574 23.9592 7.25994C23.7461 7.29119 23.56 7.34091 23.4009 7.40909C23.2418 7.47727 23.1183 7.5696 23.0302 7.68608C22.9421 7.79972 22.8981 7.94176 22.8981 8.11222C22.8981 8.35938 22.9876 8.5483 23.1665 8.67898C23.3484 8.80682 23.5785 8.87074 23.8569 8.87074ZM30.2468 1.27273V10H28.4315V1.27273H30.2468ZM35.2209 3.45455V4.81818H31.1811V3.45455H35.2209ZM32.1058 10V2.98153C32.1058 2.5071 32.1982 2.11364 32.3828 1.80114C32.5703 1.48864 32.826 1.25426 33.1499 1.09801C33.4737 0.941761 33.8416 0.863636 34.2536 0.863636C34.532 0.863636 34.7862 0.884943 35.0163 0.927557C35.2493 0.97017 35.4226 1.00852 35.5362 1.04261L35.2124 2.40625C35.1413 2.38352 35.0533 2.36222 34.9482 2.34233C34.8459 2.32244 34.7408 2.3125 34.6328 2.3125C34.3658 2.3125 34.1797 2.375 34.0746 2.5C33.9695 2.62216 33.9169 2.79403 33.9169 3.01562V10H32.1058ZM38.1452 1.27273V10H36.3299V1.27273H38.1452ZM43.7969 7.21307V3.45455H45.6122V10H43.8693V8.81108H43.8011C43.6534 9.1946 43.4077 9.50284 43.0639 9.7358C42.723 9.96875 42.3068 10.0852 41.8153 10.0852C41.3778 10.0852 40.9929 9.9858 40.6605 9.78693C40.3281 9.58807 40.0682 9.3054 39.8807 8.93892C39.696 8.57244 39.6023 8.13352 39.5994 7.62216V3.45455H41.4148V7.2983C41.4176 7.68466 41.5213 7.99006 41.7259 8.21449C41.9304 8.43892 42.2045 8.55114 42.5483 8.55114C42.767 8.55114 42.9716 8.50142 43.1619 8.40199C43.3523 8.29972 43.5057 8.14915 43.6222 7.95028C43.7415 7.75142 43.7997 7.50568 43.7969 7.21307ZM50.0472 10.1278C49.3739 10.1278 48.7944 9.99148 48.3086 9.71875C47.8256 9.44318 47.4535 9.05398 47.1921 8.55114C46.9308 8.04545 46.8001 7.44744 46.8001 6.7571C46.8001 6.08381 46.9308 5.4929 47.1921 4.98438C47.4535 4.47585 47.8214 4.07955 48.2958 3.79545C48.7731 3.51136 49.3327 3.36932 49.9748 3.36932C50.4066 3.36932 50.8086 3.43892 51.1808 3.57812C51.5558 3.71449 51.8825 3.92045 52.1609 4.19602C52.4421 4.47159 52.6609 4.81818 52.8171 5.2358C52.9734 5.65057 53.0515 6.13636 53.0515 6.69318V7.19176H47.5245V6.06676H51.3427C51.3427 5.8054 51.2859 5.57386 51.1722 5.37216C51.0586 5.17045 50.9009 5.01278 50.6992 4.89915C50.5004 4.78267 50.2688 4.72443 50.0046 4.72443C49.729 4.72443 49.4847 4.78835 49.2717 4.91619C49.0614 5.04119 48.8967 5.21023 48.7773 5.4233C48.658 5.63352 48.5969 5.8679 48.5941 6.12642V7.19602C48.5941 7.51989 48.6538 7.79972 48.7731 8.03551C48.8952 8.27131 49.0671 8.45312 49.2887 8.58097C49.5103 8.70881 49.7731 8.77273 50.0771 8.77273C50.2788 8.77273 50.4634 8.74432 50.631 8.6875C50.7987 8.63068 50.9421 8.54545 51.0614 8.43182C51.1808 8.31818 51.2717 8.17898 51.3342 8.0142L53.0131 8.125C52.9279 8.52841 52.7532 8.88068 52.489 9.18182C52.2276 9.48011 51.8896 9.71307 51.4748 9.88068C51.0629 10.0455 50.587 10.1278 50.0472 10.1278ZM56.0515 6.21591V10H54.2362V3.45455H55.9663V4.60938H56.043C56.1879 4.22869 56.4308 3.92756 56.7717 3.70597C57.1126 3.48153 57.5259 3.36932 58.0117 3.36932C58.4663 3.36932 58.8626 3.46875 59.2006 3.66761C59.5387 3.86648 59.8015 4.15057 59.989 4.51989C60.1765 4.88636 60.2702 5.32386 60.2702 5.83239V10H58.4549V6.15625C58.4577 5.75568 58.3555 5.44318 58.1481 5.21875C57.9407 4.99148 57.6552 4.87784 57.2915 4.87784C57.0472 4.87784 56.8313 4.9304 56.6438 5.03551C56.4592 5.14062 56.3143 5.29403 56.2092 5.49574C56.1069 5.6946 56.0543 5.93466 56.0515 6.21591ZM64.6584 10.1278C63.9879 10.1278 63.4112 9.9858 62.9283 9.7017C62.4482 9.41477 62.0788 9.01705 61.8203 8.50852C61.5646 8 61.4368 7.41477 61.4368 6.75284C61.4368 6.08239 61.5661 5.49432 61.8246 4.98864C62.0859 4.48011 62.4567 4.08381 62.9368 3.79972C63.4169 3.51278 63.9879 3.36932 64.6499 3.36932C65.2209 3.36932 65.7209 3.47301 66.1499 3.6804C66.5788 3.88778 66.9183 4.17898 67.1683 4.55398C67.4183 4.92898 67.5561 5.36932 67.5817 5.875H65.8686C65.8203 5.5483 65.6925 5.28551 65.4851 5.08665C65.2805 4.88494 65.0121 4.78409 64.6797 4.78409C64.3984 4.78409 64.1527 4.8608 63.9425 5.0142C63.7351 5.16477 63.5732 5.38494 63.4567 5.67472C63.3402 5.96449 63.282 6.31534 63.282 6.72727C63.282 7.14489 63.3388 7.5 63.4524 7.79261C63.5689 8.08523 63.7322 8.30824 63.9425 8.46165C64.1527 8.61506 64.3984 8.69176 64.6797 8.69176C64.8871 8.69176 65.0732 8.64915 65.2379 8.56392C65.4055 8.47869 65.5433 8.35511 65.6513 8.19318C65.7621 8.02841 65.8345 7.83097 65.8686 7.60085H67.5817C67.5533 8.10085 67.4169 8.54119 67.1726 8.92188C66.9311 9.29972 66.5973 9.59517 66.1712 9.80824C65.745 10.0213 65.2408 10.1278 64.6584 10.1278ZM71.7269 10.1278C71.0536 10.1278 70.4741 9.99148 69.9883 9.71875C69.5053 9.44318 69.1332 9.05398 68.8718 8.55114C68.6104 8.04545 68.4798 7.44744 68.4798 6.7571C68.4798 6.08381 68.6104 5.4929 68.8718 4.98438C69.1332 4.47585 69.5011 4.07955 69.9755 3.79545C70.4528 3.51136 71.0124 3.36932 71.6545 3.36932C72.0863 3.36932 72.4883 3.43892 72.8604 3.57812C73.2354 3.71449 73.5621 3.92045 73.8406 4.19602C74.1218 4.47159 74.3406 4.81818 74.4968 5.2358C74.6531 5.65057 74.7312 6.13636 74.7312 6.69318V7.19176H69.2042V6.06676H73.0224C73.0224 5.8054 72.9656 5.57386 72.8519 5.37216C72.7383 5.17045 72.5806 5.01278 72.3789 4.89915C72.18 4.78267 71.9485 4.72443 71.6843 4.72443C71.4087 4.72443 71.1644 4.78835 70.9513 4.91619C70.7411 5.04119 70.5763 5.21023 70.457 5.4233C70.3377 5.63352 70.2766 5.8679 70.2738 6.12642V7.19602C70.2738 7.51989 70.3335 7.79972 70.4528 8.03551C70.5749 8.27131 70.7468 8.45312 70.9684 8.58097C71.19 8.70881 71.4528 8.77273 71.7567 8.77273C71.9585 8.77273 72.1431 8.74432 72.3107 8.6875C72.4783 8.63068 72.6218 8.54545 72.7411 8.43182C72.8604 8.31818 72.9513 8.17898 73.0138 8.0142L74.6928 8.125C74.6076 8.52841 74.4329 8.88068 74.1687 9.18182C73.9073 9.48011 73.5692 9.71307 73.1545 9.88068C72.7425 10.0455 72.2667 10.1278 71.7269 10.1278ZM75.9158 10V3.45455H77.6758V4.59659H77.744C77.8633 4.19034 78.0636 3.88352 78.3448 3.67614C78.6261 3.46591 78.9499 3.3608 79.3164 3.3608C79.4073 3.3608 79.5053 3.36648 79.6104 3.37784C79.7156 3.3892 79.8079 3.40483 79.8874 3.42472V5.03551C79.8022 5.00994 79.6843 4.98722 79.5337 4.96733C79.3832 4.94744 79.2454 4.9375 79.1204 4.9375C78.8533 4.9375 78.6147 4.99574 78.4045 5.11222C78.1971 5.22585 78.0323 5.38494 77.9102 5.58949C77.7908 5.79403 77.7312 6.02983 77.7312 6.29688V10H75.9158Z" fill="#AE6666"/>
<path d="M0.379261 19V14.6364H2.12642C2.44744 14.6364 2.7152 14.6839 2.92969 14.7791C3.14418 14.8743 3.3054 15.0064 3.41335 15.1754C3.52131 15.343 3.57528 15.5362 3.57528 15.755C3.57528 15.9254 3.54119 16.0753 3.47301 16.2045C3.40483 16.3324 3.31108 16.4375 3.19176 16.5199C3.07386 16.6009 2.93892 16.6584 2.78693 16.6925V16.7351C2.95313 16.7422 3.10866 16.7891 3.25355 16.8757C3.39986 16.9624 3.51847 17.0838 3.60938 17.2401C3.70028 17.3949 3.74574 17.5795 3.74574 17.794C3.74574 18.0256 3.68821 18.2322 3.57315 18.4141C3.45952 18.5945 3.29119 18.7372 3.06818 18.8423C2.84517 18.9474 2.57031 19 2.24361 19H0.379261ZM1.30185 18.2457H2.05398C2.31108 18.2457 2.49858 18.1967 2.61648 18.0987C2.73438 17.9993 2.79332 17.8672 2.79332 17.7024C2.79332 17.5817 2.7642 17.4751 2.70597 17.3828C2.64773 17.2905 2.56463 17.218 2.45668 17.1655C2.35014 17.1129 2.22301 17.0866 2.07528 17.0866H1.30185V18.2457ZM1.30185 16.4624H1.9858C2.11222 16.4624 2.22443 16.4403 2.32244 16.3963C2.42188 16.3509 2.5 16.2869 2.55682 16.2045C2.61506 16.1222 2.64418 16.0234 2.64418 15.9084C2.64418 15.7507 2.58807 15.6236 2.47585 15.527C2.36506 15.4304 2.20739 15.3821 2.00284 15.3821H1.30185V16.4624ZM5.52901 19V15.7273H6.40898V16.2983H6.44308C6.50273 16.0952 6.60288 15.9418 6.7435 15.8381C6.88413 15.733 7.04606 15.6804 7.2293 15.6804C7.27475 15.6804 7.32376 15.6832 7.37631 15.6889C7.42887 15.6946 7.47504 15.7024 7.51481 15.7124V16.5178C7.47219 16.505 7.41325 16.4936 7.33796 16.4837C7.26268 16.4737 7.19379 16.4688 7.13129 16.4688C6.99776 16.4688 6.87844 16.4979 6.77333 16.5561C6.66964 16.6129 6.58725 16.6925 6.52617 16.7947C6.46651 16.897 6.43668 17.0149 6.43668 17.1484V19H5.52901ZM10.0236 19.0618C9.81477 19.0618 9.62869 19.0256 9.46534 18.9531C9.30199 18.8793 9.17273 18.7706 9.07756 18.6271C8.98381 18.4822 8.93693 18.3018 8.93693 18.0859C8.93693 17.9041 8.97031 17.7514 9.03707 17.6278C9.10383 17.5043 9.19474 17.4048 9.3098 17.3295C9.42486 17.2543 9.55554 17.1974 9.70185 17.1591C9.84957 17.1207 10.0044 17.0938 10.1663 17.0781C10.3567 17.0582 10.5101 17.0398 10.6266 17.0227C10.743 17.0043 10.8276 16.9773 10.8801 16.9418C10.9327 16.9062 10.9589 16.8537 10.9589 16.7841V16.7713C10.9589 16.6364 10.9163 16.532 10.8311 16.4581C10.7473 16.3842 10.628 16.3473 10.4732 16.3473C10.3098 16.3473 10.1798 16.3835 10.0832 16.456C9.98665 16.527 9.92273 16.6165 9.89148 16.7244L9.05199 16.6562C9.0946 16.4574 9.17841 16.2855 9.30341 16.1406C9.42841 15.9943 9.58963 15.8821 9.78707 15.804C9.98594 15.7244 10.2161 15.6847 10.4774 15.6847C10.6592 15.6847 10.8332 15.706 10.9994 15.7486C11.167 15.7912 11.3155 15.8572 11.4447 15.9467C11.5754 16.0362 11.6784 16.1513 11.7537 16.2919C11.829 16.4311 11.8666 16.598 11.8666 16.7926V19H11.0058V18.5462H10.9803C10.9277 18.6484 10.8574 18.7386 10.7693 18.8168C10.6812 18.8935 10.5754 18.9538 10.4518 18.9979C10.3283 19.0405 10.1855 19.0618 10.0236 19.0618ZM10.2835 18.4354C10.417 18.4354 10.5349 18.4091 10.6372 18.3565C10.7395 18.3026 10.8197 18.2301 10.878 18.1392C10.9362 18.0483 10.9653 17.9453 10.9653 17.8303V17.483C10.9369 17.5014 10.8979 17.5185 10.8482 17.5341C10.7999 17.5483 10.7452 17.5618 10.6841 17.5746C10.623 17.5859 10.5619 17.5966 10.5009 17.6065C10.4398 17.6151 10.3844 17.6229 10.3347 17.63C10.2281 17.6456 10.1351 17.6705 10.0555 17.7045C9.97599 17.7386 9.9142 17.7848 9.87017 17.843C9.82614 17.8999 9.80412 17.9709 9.80412 18.0561C9.80412 18.1797 9.84886 18.2741 9.93835 18.3395C10.0293 18.4034 10.1443 18.4354 10.2835 18.4354ZM14.6785 17.108V19H13.7708V15.7273H14.6359V16.3047H14.6742C14.7467 16.1143 14.8681 15.9638 15.0386 15.853C15.209 15.7408 15.4157 15.6847 15.6586 15.6847C15.8859 15.6847 16.084 15.7344 16.2531 15.8338C16.4221 15.9332 16.5535 16.0753 16.6472 16.2599C16.741 16.4432 16.7879 16.6619 16.7879 16.9162V19H15.8802V17.0781C15.8816 16.8778 15.8305 16.7216 15.7268 16.6094C15.6231 16.4957 15.4803 16.4389 15.2985 16.4389C15.1763 16.4389 15.0684 16.4652 14.9746 16.5178C14.8823 16.5703 14.8099 16.647 14.7573 16.7479C14.7062 16.8473 14.6799 16.9673 14.6785 17.108ZM19.9092 19.0533C19.6606 19.0533 19.4355 18.9893 19.2338 18.8615C19.0335 18.7322 18.8744 18.5426 18.7565 18.2926C18.64 18.0412 18.5818 17.733 18.5818 17.3679C18.5818 16.9929 18.6422 16.6811 18.7629 16.4325C18.8836 16.1825 19.0441 15.9957 19.2444 15.8722C19.4461 15.7472 19.667 15.6847 19.9071 15.6847C20.0903 15.6847 20.243 15.7159 20.3652 15.7784C20.4887 15.8395 20.5882 15.9162 20.6635 16.0085C20.7402 16.0994 20.7984 16.1889 20.8382 16.277H20.8659V14.6364H21.7714V19H20.8765V18.4759H20.8382C20.7956 18.5668 20.7352 18.657 20.6571 18.7464C20.5804 18.8345 20.4802 18.9077 20.3566 18.9659C20.2345 19.0241 20.0853 19.0533 19.9092 19.0533ZM20.1968 18.331C20.3431 18.331 20.4667 18.2912 20.5676 18.2116C20.6699 18.1307 20.748 18.0178 20.802 17.8729C20.8574 17.728 20.885 17.5582 20.885 17.3636C20.885 17.169 20.8581 17 20.8041 16.8565C20.7501 16.7131 20.672 16.6023 20.5697 16.5241C20.4674 16.446 20.3431 16.407 20.1968 16.407C20.0477 16.407 19.922 16.4474 19.8197 16.5284C19.7174 16.6094 19.64 16.7216 19.5875 16.8651C19.5349 17.0085 19.5086 17.1747 19.5086 17.3636C19.5086 17.554 19.5349 17.7223 19.5875 17.8686C19.6414 18.0135 19.7189 18.1271 19.8197 18.2095C19.922 18.2905 20.0477 18.331 20.1968 18.331ZM28.0663 15.7273V16.4091H26.0464V15.7273H28.0663ZM26.5088 19V15.4908C26.5088 15.2536 26.5549 15.0568 26.6473 14.9006C26.741 14.7443 26.8689 14.6271 27.0308 14.549C27.1927 14.4709 27.3767 14.4318 27.5826 14.4318C27.7218 14.4318 27.849 14.4425 27.964 14.4638C28.0805 14.4851 28.1672 14.5043 28.224 14.5213L28.062 15.2031C28.0265 15.1918 27.9825 15.1811 27.9299 15.1712C27.8788 15.1612 27.8262 15.1562 27.7723 15.1562C27.6387 15.1562 27.5457 15.1875 27.4931 15.25C27.4406 15.3111 27.4143 15.397 27.4143 15.5078V19H26.5088ZM31.1823 19.0639C30.8513 19.0639 30.5651 18.9936 30.3237 18.853C30.0836 18.7109 29.8982 18.5135 29.7675 18.2607C29.6369 18.0064 29.5715 17.7116 29.5715 17.3764C29.5715 17.0384 29.6369 16.7429 29.7675 16.4901C29.8982 16.2358 30.0836 16.0384 30.3237 15.8977C30.5651 15.7557 30.8513 15.6847 31.1823 15.6847C31.5133 15.6847 31.7988 15.7557 32.0388 15.8977C32.2803 16.0384 32.4664 16.2358 32.5971 16.4901C32.7278 16.7429 32.7931 17.0384 32.7931 17.3764C32.7931 17.7116 32.7278 18.0064 32.5971 18.2607C32.4664 18.5135 32.2803 18.7109 32.0388 18.853C31.7988 18.9936 31.5133 19.0639 31.1823 19.0639ZM31.1866 18.3608C31.3371 18.3608 31.4629 18.3182 31.5637 18.233C31.6646 18.1463 31.7406 18.0284 31.7917 17.8793C31.8442 17.7301 31.8705 17.5604 31.8705 17.37C31.8705 17.1797 31.8442 17.0099 31.7917 16.8608C31.7406 16.7116 31.6646 16.5937 31.5637 16.5071C31.4629 16.4205 31.3371 16.3771 31.1866 16.3771C31.0346 16.3771 30.9067 16.4205 30.8031 16.5071C30.7008 16.5937 30.6234 16.7116 30.5708 16.8608C30.5197 17.0099 30.4941 17.1797 30.4941 17.37C30.4941 17.5604 30.5197 17.7301 30.5708 17.8793C30.6234 18.0284 30.7008 18.1463 30.8031 18.233C30.9067 18.3182 31.0346 18.3608 31.1866 18.3608ZM34.5833 19V15.7273H35.4633V16.2983H35.4974C35.557 16.0952 35.6572 15.9418 35.7978 15.8381C35.9384 15.733 36.1004 15.6804 36.2836 15.6804C36.329 15.6804 36.3781 15.6832 36.4306 15.6889C36.4832 15.6946 36.5293 15.7024 36.5691 15.7124V16.5178C36.5265 16.505 36.4675 16.4936 36.3923 16.4837C36.317 16.4737 36.2481 16.4688 36.1856 16.4688C36.0521 16.4688 35.9327 16.4979 35.8276 16.5561C35.7239 16.6129 35.6415 16.6925 35.5805 16.7947C35.5208 16.897 35.491 17.0149 35.491 17.1484V19H34.5833ZM41.7667 14.6364V19H40.8441V14.6364H41.7667ZM44.6164 17.108V19H43.7087V15.7273H44.5738V16.3047H44.6121C44.6846 16.1143 44.806 15.9638 44.9765 15.853C45.1469 15.7408 45.3536 15.6847 45.5965 15.6847C45.8238 15.6847 46.0219 15.7344 46.1909 15.8338C46.36 15.9332 46.4914 16.0753 46.5851 16.2599C46.6789 16.4432 46.7257 16.6619 46.7257 16.9162V19H45.8181V17.0781C45.8195 16.8778 45.7684 16.7216 45.6647 16.6094C45.561 16.4957 45.4182 16.4389 45.2364 16.4389C45.1142 16.4389 45.0063 16.4652 44.9125 16.5178C44.8202 16.5703 44.7478 16.647 44.6952 16.7479C44.6441 16.8473 44.6178 16.9673 44.6164 17.108ZM50.4011 15.7273V16.4091H48.3812V15.7273H50.4011ZM48.8435 19V15.4908C48.8435 15.2536 48.8897 15.0568 48.982 14.9006C49.0758 14.7443 49.2036 14.6271 49.3656 14.549C49.5275 14.4709 49.7114 14.4318 49.9174 14.4318C50.0566 14.4318 50.1837 14.4425 50.2988 14.4638C50.4153 14.4851 50.5019 14.5043 50.5587 14.5213L50.3968 15.2031C50.3613 15.1918 50.3173 15.1811 50.2647 15.1712C50.2136 15.1612 50.161 15.1562 50.107 15.1562C49.9735 15.1562 49.8805 15.1875 49.8279 15.25C49.7754 15.3111 49.7491 15.397 49.7491 15.5078V19H48.8435ZM53.0632 14.6364V19H52.1556V14.6364H53.0632ZM57.0891 17.6065V15.7273H57.9967V19H57.1253V18.4055H57.0912C57.0173 18.5973 56.8945 18.7514 56.7226 18.8679C56.5521 18.9844 56.344 19.0426 56.0983 19.0426C55.8795 19.0426 55.6871 18.9929 55.5209 18.8935C55.3547 18.794 55.2247 18.6527 55.131 18.4695C55.0386 18.2862 54.9918 18.0668 54.9903 17.8111V15.7273H55.898V17.6491C55.8994 17.8423 55.9513 17.995 56.0536 18.1072C56.1558 18.2195 56.2929 18.2756 56.4648 18.2756C56.5741 18.2756 56.6764 18.2507 56.7716 18.201C56.8668 18.1499 56.9435 18.0746 57.0017 17.9751C57.0614 17.8757 57.0905 17.7528 57.0891 17.6065ZM61.4142 19.0639C61.0776 19.0639 60.7878 18.9957 60.5449 18.8594C60.3034 18.7216 60.1174 18.527 59.9867 18.2756C59.856 18.0227 59.7907 17.7237 59.7907 17.3786C59.7907 17.0419 59.856 16.7464 59.9867 16.4922C60.1174 16.2379 60.3013 16.0398 60.5385 15.8977C60.7772 15.7557 61.057 15.6847 61.378 15.6847C61.5939 15.6847 61.7949 15.7195 61.981 15.7891C62.1685 15.8572 62.3319 15.9602 62.4711 16.098C62.6117 16.2358 62.7211 16.4091 62.7992 16.6179C62.8773 16.8253 62.9164 17.0682 62.9164 17.3466V17.5959H60.1529V17.0334H62.062C62.062 16.9027 62.0336 16.7869 61.9767 16.6861C61.9199 16.5852 61.8411 16.5064 61.7402 16.4496C61.6408 16.3913 61.525 16.3622 61.3929 16.3622C61.2551 16.3622 61.133 16.3942 61.0265 16.4581C60.9213 16.5206 60.839 16.6051 60.7793 16.7116C60.7196 16.8168 60.6891 16.9339 60.6877 17.0632V17.598C60.6877 17.7599 60.7175 17.8999 60.7772 18.0178C60.8382 18.1357 60.9242 18.2266 61.035 18.2905C61.1458 18.3544 61.2772 18.3864 61.4292 18.3864C61.53 18.3864 61.6223 18.3722 61.7061 18.3438C61.79 18.3153 61.8617 18.2727 61.9213 18.2159C61.981 18.1591 62.0265 18.0895 62.0577 18.0071L62.8972 18.0625C62.8546 18.2642 62.7672 18.4403 62.6351 18.5909C62.5044 18.7401 62.3354 18.8565 62.128 18.9403C61.9221 19.0227 61.6841 19.0639 61.4142 19.0639ZM65.6164 17.108V19H64.7087V15.7273H65.5738V16.3047H65.6121C65.6845 16.1143 65.806 15.9638 65.9765 15.853C66.1469 15.7408 66.3536 15.6847 66.5965 15.6847C66.8238 15.6847 67.0219 15.7344 67.1909 15.8338C67.36 15.9332 67.4914 16.0753 67.5851 16.2599C67.6789 16.4432 67.7257 16.6619 67.7257 16.9162V19H66.8181V17.0781C66.8195 16.8778 66.7684 16.7216 66.6647 16.6094C66.561 16.4957 66.4182 16.4389 66.2364 16.4389C66.1142 16.4389 66.0063 16.4652 65.9125 16.5178C65.8202 16.5703 65.7478 16.647 65.6952 16.7479C65.6441 16.8473 65.6178 16.9673 65.6164 17.108ZM71.1198 19.0639C70.7846 19.0639 70.4962 18.9929 70.2548 18.8509C70.0147 18.7074 69.83 18.5085 69.7008 18.2543C69.5729 18 69.509 17.7074 69.509 17.3764C69.509 17.0412 69.5737 16.7472 69.7029 16.4943C69.8336 16.2401 70.019 16.0419 70.259 15.8999C70.4991 15.7564 70.7846 15.6847 71.1156 15.6847C71.4011 15.6847 71.6511 15.7365 71.8656 15.8402C72.08 15.9439 72.2498 16.0895 72.3748 16.277C72.4998 16.4645 72.5687 16.6847 72.5815 16.9375H71.7249C71.7008 16.7741 71.6369 16.6428 71.5332 16.5433C71.4309 16.4425 71.2967 16.392 71.1305 16.392C70.9898 16.392 70.867 16.4304 70.7619 16.5071C70.6582 16.5824 70.5772 16.6925 70.519 16.8374C70.4607 16.9822 70.4316 17.1577 70.4316 17.3636C70.4316 17.5724 70.46 17.75 70.5168 17.8963C70.5751 18.0426 70.6567 18.1541 70.7619 18.2308C70.867 18.3075 70.9898 18.3459 71.1305 18.3459C71.2342 18.3459 71.3272 18.3246 71.4096 18.282C71.4934 18.2393 71.5623 18.1776 71.6163 18.0966C71.6717 18.0142 71.7079 17.9155 71.7249 17.8004H72.5815C72.5673 18.0504 72.4991 18.2706 72.3769 18.4609C72.2562 18.6499 72.0893 18.7976 71.8762 18.9041C71.6631 19.0107 71.411 19.0639 71.1198 19.0639ZM75.8541 19.0639C75.5174 19.0639 75.2277 18.9957 74.9848 18.8594C74.7433 18.7216 74.5572 18.527 74.4265 18.2756C74.2958 18.0227 74.2305 17.7237 74.2305 17.3786C74.2305 17.0419 74.2958 16.7464 74.4265 16.4922C74.5572 16.2379 74.7412 16.0398 74.9784 15.8977C75.217 15.7557 75.4968 15.6847 75.8179 15.6847C76.0338 15.6847 76.2348 15.7195 76.4208 15.7891C76.6083 15.8572 76.7717 15.9602 76.9109 16.098C77.0515 16.2358 77.1609 16.4091 77.239 16.6179C77.3172 16.8253 77.3562 17.0682 77.3562 17.3466V17.5959H74.5927V17.0334H76.5018C76.5018 16.9027 76.4734 16.7869 76.4166 16.6861C76.3598 16.5852 76.2809 16.5064 76.1801 16.4496C76.0806 16.3913 75.9649 16.3622 75.8328 16.3622C75.695 16.3622 75.5728 16.3942 75.4663 16.4581C75.3612 16.5206 75.2788 16.6051 75.2191 16.7116C75.1595 16.8168 75.1289 16.9339 75.1275 17.0632V17.598C75.1275 17.7599 75.1573 17.8999 75.217 18.0178C75.2781 18.1357 75.364 18.2266 75.4748 18.2905C75.5856 18.3544 75.717 18.3864 75.869 18.3864C75.9698 18.3864 76.0622 18.3722 76.146 18.3438C76.2298 18.3153 76.3015 18.2727 76.3612 18.2159C76.4208 18.1591 76.4663 18.0895 76.4975 18.0071L77.337 18.0625C77.2944 18.2642 77.2071 18.4403 77.075 18.5909C76.9443 18.7401 76.7752 18.8565 76.5679 18.9403C76.3619 19.0227 76.124 19.0639 75.8541 19.0639ZM79.1485 19V15.7273H80.0285V16.2983H80.0626C80.1223 16.0952 80.2224 15.9418 80.363 15.8381C80.5037 15.733 80.6656 15.6804 80.8488 15.6804C80.8943 15.6804 80.9433 15.6832 80.9958 15.6889C81.0484 15.6946 81.0946 15.7024 81.1343 15.7124V16.5178C81.0917 16.505 81.0328 16.4936 80.9575 16.4837C80.8822 16.4737 80.8133 16.4688 80.7508 16.4688C80.6173 16.4688 80.498 16.4979 80.3929 16.5561C80.2892 16.6129 80.2068 16.6925 80.1457 16.7947C80.086 16.897 80.0562 17.0149 80.0562 17.1484V19H79.1485Z" fill="black"/>
<g opacity="0.7" filter="url(#filter0_b_105_2)">
<path d="M14.7906 22.5459C14.5399 22.6616 14.4303 22.9586 14.5459 23.2094L16.4302 27.2959C16.5458 27.5467 16.8428 27.6562 17.0936 27.5406C17.3443 27.425 17.4539 27.1279 17.3383 26.8772L15.6634 23.2447L19.2959 21.5698C19.5467 21.4542 19.6562 21.1572 19.5406 20.9064C19.425 20.6557 19.1279 20.5461 18.8772 20.6617L14.7906 22.5459ZM41.8081 28.9961L41.8135 28.4962L41.8081 28.9961ZM15 23C14.827 23.4691 14.8271 23.4691 14.8273 23.4692C14.8274 23.4693 14.8276 23.4693 14.8279 23.4694C14.8284 23.4697 14.8292 23.4699 14.8303 23.4703C14.8323 23.4711 14.8354 23.4722 14.8394 23.4737C14.8473 23.4766 14.8591 23.4809 14.8746 23.4866C14.9057 23.4979 14.9517 23.5146 15.0119 23.5364C15.1325 23.5799 15.3103 23.6435 15.5401 23.7245C15.9997 23.8864 16.6677 24.1175 17.5029 24.395C19.1731 24.95 21.5134 25.6912 24.195 26.4362C29.5465 27.9229 36.3007 29.4372 41.8028 29.4961L41.8135 28.4962C36.4482 28.4387 29.7984 26.955 24.4627 25.4727C21.8006 24.7331 19.4765 23.9971 17.8182 23.446C16.9892 23.1706 16.3269 22.9414 15.8723 22.7813C15.645 22.7012 15.4697 22.6384 15.3514 22.5958C15.2923 22.5744 15.2474 22.5581 15.2175 22.5472C15.2025 22.5417 15.1913 22.5376 15.1838 22.5349C15.1801 22.5335 15.1773 22.5325 15.1755 22.5318C15.1746 22.5315 15.174 22.5312 15.1736 22.5311C15.1734 22.531 15.1732 22.531 15.1731 22.5309C15.173 22.5309 15.173 22.5309 15 23ZM41.8028 29.4961C52.7691 29.6135 60.1566 27.0702 68.2048 23.4561L67.7952 22.5439C59.8202 26.1251 52.5819 28.6114 41.8135 28.4962L41.8028 29.4961Z" fill="#945454"/>
</g>
<defs>
<filter id="filter0_b_105_2" x="10.4999" y="16.6157" width="61.7049" height="16.8843" filterUnits="userSpaceOnUse" color-interpolation-filters="sRGB">
<feFlood flood-opacity="0" result="BackgroundImageFix"/>
<feGaussianBlur in="BackgroundImageFix" stdDeviation="2"/>
<feComposite in2="SourceAlpha" operator="in" result="effect1_backgroundBlur_105_2"/>
<feBlend mode="normal" in="SourceGraphic" in2="effect1_backgroundBlur_105_2" result="shape"/>
</filter>
</defs>
</svg>
